<svg xmlns="http://www.w3.org/2000/svg" version="1.1" xmlns:xlink="http://www.w3.org/1999/xlink" width="200" height="200"><svg xmlns="http://www.w3.org/2000/svg" version="1.1" xmlns:xlink="http://www.w3.org/1999/xlink" viewBox="0 0 200 200"><rect width="200" height="200" fill="url('#gradient')"></rect><defs><linearGradient id="SvgjsLinearGradient1001" gradientTransform="rotate(115 0.5 0.5)"><stop offset="0%" stop-color="#445272"></stop><stop offset="100%" stop-color="#445272"></stop></linearGradient></defs><g><g fill="#d3d3d3" transform="matrix(1.8157618213660245,0,0,1.8157618213660245,17.052405709310094,109.74277370038675)" stroke="#000000" stroke-width="0"><path d="M12.96-14.22L12.96 0L9.55 0L9.55-5.94L4.50-5.94L4.50 0L1.07 0L1.07-14.22L4.50-14.22L4.50-8.57L9.55-8.57L9.55-14.22L12.96-14.22ZM14.57-4.82L14.56-5.38Q14.56-6.96 15.18-8.20Q15.79-9.43 16.94-10.10Q18.10-10.76 19.65-10.76L19.65-10.76Q22.02-10.76 23.39-9.29Q24.76-7.82 24.76-5.29L24.76-5.29L24.76-5.18Q24.76-2.71 23.38-1.25Q22.01 0.20 19.67 0.20L19.67 0.20Q17.41 0.20 16.04-1.16Q14.68-2.51 14.57-4.82L14.57-4.82ZM17.86-5.77L17.85-5.18Q17.85-3.71 18.31-3.03Q18.77-2.34 19.67-2.34L19.67-2.34Q21.43-2.34 21.46-5.05L21.46-5.05L21.46-5.38Q21.46-8.22 19.65-8.22L19.65-8.22Q18.00-8.22 17.86-5.77L17.86-5.77ZM28.61-10.57L30.28-4.61L32.04-10.57L35.57-10.57L31.26 1.77L31.07 2.22Q30.16 4.27 27.83 4.27L27.83 4.27Q27.19 4.27 26.47 4.07L26.47 4.07L26.47 1.72L26.90 1.72Q27.60 1.72 27.96 1.52Q28.33 1.32 28.51 0.80L28.51 0.80L28.77 0.10L25.10-10.57L28.61-10.57ZM44.67-4.81L48.08-4.81Q48.01-3.33 47.28-2.19Q46.54-1.05 45.22-0.43Q43.90 0.20 42.20 0.20L42.20 0.20Q39.39 0.20 37.78-1.63Q36.17-3.46 36.17-6.79L36.17-6.79L36.17-7.49Q36.17-9.58 36.90-11.15Q37.63-12.71 38.99-13.57Q40.36-14.42 42.16-14.42L42.16-14.42Q44.75-14.42 46.32-13.06Q47.89-11.70 48.11-9.31L48.11-9.31L44.69-9.31Q44.65-10.61 44.03-11.17Q43.42-11.74 42.16-11.74L42.16-11.74Q40.88-11.74 40.28-10.78Q39.69-9.82 39.66-7.72L39.66-7.72L39.66-6.72Q39.66-4.44 40.23-3.47Q40.80-2.49 42.20-2.49L42.20-2.49Q43.38-2.49 44.00-3.05Q44.63-3.60 44.67-4.81L44.67-4.81ZM56.00-10.64L55.94-7.59L54.85-7.67Q53.30-7.67 52.86-6.69L52.86-6.69L52.86 0L49.57 0L49.57-10.57L52.66-10.57L52.76-9.21Q53.59-10.76 55.08-10.76L55.08-10.76Q55.61-10.76 56.00-10.64L56.00-10.64ZM62.05 0.20L62.05 0.20Q59.62 0.20 58.12-1.25Q56.61-2.71 56.61-5.03L56.61-5.03L56.61-5.30Q56.61-6.92 57.21-8.16Q57.81-9.40 58.96-10.08Q60.12-10.76 61.70-10.76L61.70-10.76Q63.93-10.76 65.21-9.38Q66.50-8.00 66.50-5.53L66.50-5.53L66.50-4.25L59.96-4.25Q60.14-3.36 60.73-2.85Q61.33-2.34 62.28-2.34L62.28-2.34Q63.84-2.34 64.72-3.44L64.72-3.44L66.22-1.66Q65.61-0.81 64.48-0.31Q63.35 0.20 62.05 0.20ZM61.68-8.22L61.68-8.22Q60.23-8.22 59.96-6.31L59.96-6.31L63.28-6.31L63.28-6.56Q63.30-7.35 62.88-7.79Q62.46-8.22 61.68-8.22ZM67.41-5.36L67.41-5.36Q67.41-7.87 68.50-9.32Q69.58-10.76 71.52-10.76L71.52-10.76Q72.94-10.76 73.91-9.65L73.91-9.65L73.91-15L77.21-15L77.21 0L74.25 0L74.08-1.13Q73.07 0.20 71.50 0.20L71.50 0.20Q69.62 0.20 68.52-1.25Q67.41-2.70 67.41-5.36ZM70.71-5.76L70.70-5.16Q70.70-2.34 72.34-2.34L72.34-2.34Q73.44-2.34 73.91-3.26L73.91-3.26L73.91-7.29Q73.46-8.22 72.36-8.22L72.36-8.22Q70.84-8.22 70.71-5.76L70.71-5.76ZM82.55-10.57L82.55 0L79.25 0L79.25-10.57L82.55-10.57ZM79.05-13.29L79.05-13.29Q79.05-13.99 79.56-14.44Q80.07-14.89 80.88-14.89Q81.69-14.89 82.20-14.44Q82.71-13.99 82.71-13.29Q82.71-12.59 82.20-12.14Q81.69-11.69 80.88-11.69Q80.07-11.69 79.56-12.14Q79.05-12.59 79.05-13.29ZM85.12-13.19L88.41-13.19L88.41-10.57L90.15-10.57L90.15-8.28L88.41-8.28L88.41-3.45Q88.41-2.85 88.62-2.62Q88.84-2.38 89.47-2.38L89.47-2.38Q89.96-2.38 90.29-2.44L90.29-2.44L90.29-0.09Q89.40 0.20 88.44 0.20L88.44 0.20Q86.74 0.20 85.93-0.61Q85.12-1.41 85.12-3.04L85.12-3.04L85.12-8.28L83.77-8.28L83.77-10.57L85.12-10.57L85.12-13.19Z"></path></g></g></svg><style>@media (prefers-color-scheme: light) { :root { filter: none; } }
@media (prefers-color-scheme: dark) { :root { filter: none; } }
</style></svg>